<svg width="24" height="24" viewBox="0 0 24 24" fill="none" xmlns="http://www.w3.org/2000/svg">
<path d="M9.99993 20C9.4695 20 8.96079 19.7893 8.58572 19.4142C8.21065 19.0391 7.99993 18.5304 7.99993 18C7.99993 17.4696 8.21065 16.9609 8.58572 16.5858C8.96079 16.2107 9.4695 16 9.99993 16C10.5304 16 11.0391 16.2107 11.4141 16.5858C11.7892 16.9609 11.9999 17.4696 11.9999 18C11.9999 18.5304 11.7892 19.0391 11.4141 19.4142C11.0391 19.7893 10.5304 20 9.99993 20ZM16.9999 20C16.4695 20 15.9608 19.7893 15.5857 19.4142C15.2106 19.0391 14.9999 18.5304 14.9999 18C14.9999 17.4696 15.2106 16.9609 15.5857 16.5858C15.9608 16.2107 16.4695 16 16.9999 16C17.5304 16 18.0391 16.2107 18.4141 16.5858C18.7892 16.9609 18.9999 17.4696 18.9999 18C18.9999 18.5304 18.7892 19.0391 18.4141 19.4142C18.0391 19.7893 17.5304 20 16.9999 20ZM3.96193 5.923C3.71229 5.91495 3.47557 5.81012 3.30183 5.63068C3.12809 5.45125 3.03094 5.21127 3.03094 4.9615C3.03094 4.71173 3.12809 4.47175 3.30183 4.29232C3.47557 4.11288 3.71229 4.00805 3.96193 4H5.11293C6.01493 4 6.79493 4.626 6.99093 5.506L8.24393 11.148C8.43993 12.028 9.21993 12.654 10.1219 12.654H17.6339L19.0759 6.884H9.73093C9.48364 6.87272 9.25022 6.76654 9.07922 6.58755C8.90821 6.40857 8.81278 6.17055 8.81278 5.923C8.81278 5.67545 8.90821 5.43743 9.07922 5.25845C9.25022 5.07946 9.48364 4.97328 9.73093 4.962H19.0759C19.3683 4.96191 19.6568 5.02848 19.9195 5.15663C20.1823 5.28479 20.4123 5.47116 20.5922 5.70158C20.7721 5.93201 20.8971 6.20041 20.9577 6.4864C21.0183 6.77238 21.0129 7.06842 20.9419 7.352L19.4999 13.12C19.396 13.5362 19.1558 13.9057 18.8177 14.1697C18.4796 14.4337 18.0629 14.5771 17.6339 14.577H10.1219C9.24673 14.5771 8.39766 14.2787 7.71495 13.7311C7.03224 13.1835 6.55672 12.4194 6.36693 11.565L5.11293 5.923H3.96193Z" fill="white"/>
</svg>
