<svg width="65" height="79" viewBox="0 0 65 79" fill="none" xmlns="http://www.w3.org/2000/svg">
<path opacity="0.5" d="M46.9283 17.0711C53.228 10.7714 63.9994 15.2331 63.9994 24.1421L63.9994 43C63.9994 48.5229 59.5222 53 53.9994 53L35.1415 53C26.2325 53 21.7708 42.2286 28.0705 35.9289L46.9283 17.0711Z" fill="#15803D"/>
<path d="M53.6667 68.3334L11.0001 55M53.6667 68.3334H11.0001V55L53.6667 68.3334ZM53.6667 68.3334V47C53.6667 35.2179 44.1155 25.6667 32.3334 25.6667C30.2153 25.6667 28.1694 25.9754 26.2382 26.5501C17.426 29.1727 11.0001 37.336 11.0001 47V55L53.6667 68.3334Z" stroke="#78350F" stroke-width="1.5" stroke-linecap="round" stroke-linejoin="round"/>
<path d="M43.0001 39V41.6667" stroke="#78350F" stroke-width="1.5" stroke-linecap="round"/>
<path d="M32.3334 36.3333V39" stroke="#78350F" stroke-width="1.5" stroke-linecap="round"/>
<path d="M21.6667 33.6667V36.3334" stroke="#78350F" stroke-width="1.5" stroke-linecap="round"/>
</svg>
